<?xml version="1.0" encoding="UTF-8" standalone="no"?>
<!-- Created with Inkscape (http://www.inkscape.org/) -->

<svg
   xmlns:dc="http://purl.org/dc/elements/1.1/"
   xmlns:cc="http://creativecommons.org/ns#"
   xmlns:rdf="http://www.w3.org/1999/02/22-rdf-syntax-ns#"
   xmlns:svg="http://www.w3.org/2000/svg"
   xmlns="http://www.w3.org/2000/svg"
   xmlns:sodipodi="http://sodipodi.sourceforge.net/DTD/sodipodi-0.dtd"
   xmlns:inkscape="http://www.inkscape.org/namespaces/inkscape"
   width="210mm"
   height="297mm"
   viewBox="0 0 210 297"
   version="1.1"
   id="svg4637"
   inkscape:version="0.92.3 (2405546, 2018-03-11)"
   sodipodi:docname="player.svg">
  <defs
     id="defs4631" />
  <sodipodi:namedview
     id="base"
     pagecolor="#ffffff"
     bordercolor="#666666"
     borderopacity="1.0"
     inkscape:pageopacity="0.0"
     inkscape:pageshadow="2"
     inkscape:zoom="0.98994949"
     inkscape:cx="210.17347"
     inkscape:cy="632.0219"
     inkscape:document-units="mm"
     inkscape:current-layer="layer1"
     showgrid="false"
     inkscape:window-width="1920"
     inkscape:window-height="1027"
     inkscape:window-x="1912"
     inkscape:window-y="-8"
     inkscape:window-maximized="1" />
  <metadata
     id="metadata4634">
    <rdf:RDF>
      <cc:Work
         rdf:about="">
        <dc:format>image/svg+xml</dc:format>
        <dc:type
           rdf:resource="http://purl.org/dc/dcmitype/StillImage" />
        <dc:title></dc:title>
      </cc:Work>
    </rdf:RDF>
  </metadata>
  <g
     inkscape:label="Layer 1"
     inkscape:groupmode="layer"
     id="layer1">
    <rect
       style="fill:none;fill-opacity:1;stroke:#000000;stroke-width:0.2205677;stroke-opacity:1"
       id="rect4639"
       width="135.46666"
       height="135.46666"
       x="17.105247"
       y="69.058067"
       inkscape:export-xdpi="96"
       inkscape:export-ydpi="96" />
    <circle
       style="fill:#f0f0f0;fill-opacity:1;stroke:none;stroke-width:0.26458332;stroke-opacity:1"
       id="path5184"
       cx="129.07887"
       cy="86.278267"
       r="13.607142" />
    <circle
       r="9.4494047"
       cy="86.278267"
       cx="129.07887"
       id="circle5188"
       style="fill:#67abd6;fill-opacity:1;stroke:none;stroke-width:0.18373841;stroke-opacity:1" />
    <circle
       style="fill:#000000;fill-opacity:1;stroke:none;stroke-width:0.1057848;stroke-opacity:1"
       id="circle5190"
       cx="129.07887"
       cy="86.278267"
       r="5.440362" />
    <rect
       style="fill:#d5bcad;fill-opacity:1;stroke:none;stroke-width:0.26458332;stroke-opacity:1"
       id="rect5192"
       width="25.123335"
       height="25.123335"
       x="20.847023"
       y="70.221809"
       inkscape:export-xdpi="96"
       inkscape:export-ydpi="96" />
    <rect
       style="fill:#3373a8;fill-opacity:1;stroke:none;stroke-width:0.26458332;stroke-opacity:1"
       id="rect5194"
       width="24.722431"
       height="24.722431"
       x="22.317005"
       y="100.82417" />
    <rect
       y="125.5466"
       x="22.317005"
       height="24.722431"
       width="123.18523"
       id="rect5196"
       style="fill:#894343;fill-opacity:1;stroke:none;stroke-width:0.59060371;stroke-opacity:1" />
    <rect
       style="fill:#d2a52d;fill-opacity:1;stroke:none;stroke-width:0.26458332;stroke-opacity:1"
       id="rect5198"
       width="24.722431"
       height="24.722431"
       x="22.317005"
       y="150.26903" />
    <rect
       style="fill:#1b1b20;fill-opacity:1;stroke:none;stroke-width:0.26458332;stroke-opacity:1"
       id="rect5200"
       width="25.390606"
       height="6.4144688"
       x="22.45064"
       y="179.0005" />
    <rect
       y="185.41498"
       x="22.45064"
       height="6.4144688"
       width="25.390606"
       id="rect5202"
       style="fill:#b8b8c2;fill-opacity:1;stroke:none;stroke-width:0.26458332;stroke-opacity:1" />
    <path
       sodipodi:type="inkscape:offset"
       inkscape:radius="0.40483645"
       inkscape:original="M 86.587891 64.947266 C 85.49235 64.947266 84.588135 65.312609 83.875 66.042969 C 83.161865 66.773329 82.804688 67.730903 82.804688 68.916016 C 82.804688 70.018446 83.121962 70.909207 83.755859 71.587891 C 84.389757 72.266574 85.23291 72.605469 86.287109 72.605469 C 87.103597 72.605469 87.786214 72.461263 88.333984 72.171875 L 88.333984 71.330078 C 87.789659 71.660807 87.146484 71.826172 86.402344 71.826172 C 85.599637 71.826172 84.949219 71.55938 84.453125 71.025391 C 83.960476 70.487956 83.714844 69.767849 83.714844 68.865234 C 83.714844 67.914388 83.97876 67.154378 84.505859 66.585938 C 85.036404 66.017497 85.727186 65.732422 86.578125 65.732422 C 87.218913 65.732422 87.80344 65.881456 88.333984 66.177734 L 88.333984 65.251953 C 87.872342 65.048692 87.29069 64.947266 86.587891 64.947266 z M 74.339844 65.072266 L 74.339844 72.482422 L 75.208984 72.482422 L 75.208984 68.833984 L 75.228516 68.833984 C 75.252631 68.878771 75.318983 68.964328 75.425781 69.091797 L 78.289062 72.482422 L 79.498047 72.482422 L 76.097656 68.626953 L 79.275391 65.072266 L 78.195312 65.072266 L 75.425781 68.300781 C 75.343099 68.393799 75.276747 68.478895 75.228516 68.554688 L 75.208984 68.554688 L 75.208984 65.072266 L 74.339844 65.072266 z M 79.755859 65.072266 L 79.755859 65.816406 L 80.478516 65.816406 L 80.478516 71.738281 L 79.755859 71.738281 L 79.755859 72.482422 L 82.070312 72.482422 L 82.070312 71.738281 L 81.347656 71.738281 L 81.347656 65.816406 L 82.070312 65.816406 L 82.070312 65.072266 L 79.755859 65.072266 z M 89.84375 65.072266 L 89.84375 72.482422 L 90.710938 72.482422 L 90.710938 68.833984 L 90.732422 68.833984 C 90.756538 68.878771 90.820936 68.964328 90.927734 69.091797 L 93.791016 72.482422 L 95 72.482422 L 91.599609 68.626953 L 94.777344 65.072266 L 93.697266 65.072266 L 90.927734 68.300781 C 90.845052 68.393799 90.780653 68.478895 90.732422 68.554688 L 90.710938 68.554688 L 90.710938 65.072266 L 89.84375 65.072266 z M 98.117188 65.072266 L 98.117188 65.857422 L 100.25 65.857422 L 100.25 72.482422 L 101.11914 72.482422 L 101.11914 65.857422 L 103.25781 65.857422 L 103.25781 65.072266 L 98.117188 65.072266 z M 104.41602 65.072266 L 104.41602 72.482422 L 105.2832 72.482422 L 105.2832 69.101562 L 109.11914 69.101562 L 109.11914 72.482422 L 109.98633 72.482422 L 109.98633 65.072266 L 109.11914 65.072266 L 109.11914 68.322266 L 105.2832 68.322266 L 105.2832 65.072266 L 104.41602 65.072266 z M 111.93945 65.072266 L 111.93945 72.482422 L 115.86719 72.482422 L 115.86719 71.697266 L 112.80859 71.697266 L 112.80859 69.101562 L 115.48438 69.101562 L 115.48438 68.322266 L 112.80859 68.322266 L 112.80859 65.857422 L 115.70117 65.857422 L 115.70117 65.072266 L 111.93945 65.072266 z M 120.1875 65.072266 L 120.1875 72.482422 L 121.05664 72.482422 L 121.05664 69.201172 L 123.73242 69.201172 L 123.73242 68.419922 L 121.05664 68.419922 L 121.05664 65.857422 L 123.94922 65.857422 L 123.94922 65.072266 L 120.1875 65.072266 z M 125.35547 65.072266 L 125.35547 72.482422 L 129.19922 72.482422 L 129.19922 71.697266 L 126.22266 71.697266 L 126.22266 65.072266 L 125.35547 65.072266 z M 129.61328 65.072266 L 129.61328 65.816406 L 130.33594 65.816406 L 130.33594 71.738281 L 129.61328 71.738281 L 129.61328 72.482422 L 131.92773 72.482422 L 131.92773 71.738281 L 131.20508 71.738281 L 131.20508 65.816406 L 131.92773 65.816406 L 131.92773 65.072266 L 129.61328 65.072266 z M 133.14844 65.072266 L 133.14844 72.482422 L 134.01562 72.482422 L 134.01562 69.681641 L 134.99219 69.681641 C 135.81557 69.681641 136.46886 69.457628 136.95117 69.009766 C 137.43693 68.561903 137.67969 67.986003 137.67969 67.283203 C 137.67969 66.580404 137.46096 66.036241 137.02344 65.650391 C 136.58936 65.26454 135.97597 65.072266 135.18359 65.072266 L 133.14844 65.072266 z M 134.01562 65.857422 L 135.03516 65.857422 C 136.19271 65.857422 136.77148 66.345812 136.77148 67.324219 C 136.77148 67.823758 136.61187 68.212674 136.29492 68.488281 C 135.98142 68.760444 135.52523 68.896484 134.92578 68.896484 L 134.01562 68.896484 L 134.01562 65.857422 z "
       style="font-style:normal;font-weight:normal;font-size:10.58333302px;line-height:1.25;font-family:sans-serif;letter-spacing:0px;word-spacing:0px;fill:#ffffff;fill-opacity:1;stroke:none;stroke-width:0.26458332"
       id="text5206"
       d="m 86.587891,64.542969 c -1.185545,0 -2.216462,0.412332 -3.001953,1.216797 -0.7895,0.808569 -1.185547,1.889795 -1.185547,3.15625 0,1.180103 0.352032,2.188692 1.060547,2.947265 0.710243,0.760422 1.68521,1.146485 2.826171,1.146485 0.864156,0 1.614847,-0.152139 2.236329,-0.480469 a 0.40487693,0.40487693 0 0 0 0.214843,-0.357422 v -0.841797 a 0.40487693,0.40487693 0 0 0 -0.615234,-0.345703 c -0.474559,0.288339 -1.036539,0.4375 -1.720703,0.4375 -0.711899,0 -1.228983,-0.217377 -1.650391,-0.669922 L 84.75,70.75 c -0.415051,-0.453838 -0.630859,-1.056787 -0.630859,-1.884766 0,-0.875935 0.233012,-1.517985 0.683593,-2.003906 0.457012,-0.489655 1.014869,-0.724609 1.775391,-0.724609 0.578017,0 1.088107,0.131792 1.558594,0.394531 a 0.40487693,0.40487693 0 0 0 0.601562,-0.353516 v -0.925781 a 0.40487693,0.40487693 0 0 0 -0.240234,-0.371094 c -0.530964,-0.233783 -1.168407,-0.33789 -1.910156,-0.33789 z m -12.248047,0.125 a 0.40487693,0.40487693 0 0 0 -0.404297,0.404297 v 7.410156 a 0.40487693,0.40487693 0 0 0 0.404297,0.404297 h 0.86914 a 0.40487693,0.40487693 0 0 0 0.404297,-0.404297 v -2.541016 l 2.367188,2.802735 a 0.40487693,0.40487693 0 0 0 0.308593,0.142578 h 1.208985 a 0.40487693,0.40487693 0 0 0 0.128906,-0.02148 0.40487693,0.40487693 0 0 0 0.128906,0.02148 h 2.314453 a 0.40487693,0.40487693 0 0 0 0.404297,-0.404297 v -0.744141 a 0.40487693,0.40487693 0 0 0 -0.404297,-0.404297 h -0.318359 v -5.113281 h 0.318359 a 0.40487693,0.40487693 0 0 0 0.404297,-0.404297 v -0.74414 a 0.40487693,0.40487693 0 0 0 -0.404297,-0.404297 h -2.314453 a 0.40487693,0.40487693 0 0 0 -0.240234,0.07813 0.40487693,0.40487693 0 0 0 -0.240234,-0.07813 h -1.080079 a 0.40487693,0.40487693 0 0 0 -0.30664,0.140625 l -2.275391,2.652344 v -2.388672 a 0.40487693,0.40487693 0 0 0 -0.404297,-0.404297 z m 15.503906,0 a 0.40487693,0.40487693 0 0 0 -0.404297,0.404297 v 7.410156 a 0.40487693,0.40487693 0 0 0 0.404297,0.404297 h 0.867188 a 0.40487693,0.40487693 0 0 0 0.404296,-0.404297 v -2.541016 l 2.367188,2.802735 a 0.40487693,0.40487693 0 0 0 0.308594,0.142578 H 95 a 0.40487693,0.40487693 0 0 0 0.302734,-0.671875 l -3.162109,-3.585938 2.939453,-3.287109 a 0.40487693,0.40487693 0 0 0 -0.302734,-0.673828 h -1.080078 a 0.40487693,0.40487693 0 0 0 -0.306641,0.140625 l -2.275391,2.652344 v -2.388672 a 0.40487693,0.40487693 0 0 0 -0.404296,-0.404297 z m 8.273438,0 a 0.40487693,0.40487693 0 0 0 -0.404297,0.404297 v 0.785156 a 0.40487693,0.40487693 0 0 0 0.404297,0.404297 h 1.728515 v 6.220703 A 0.40487693,0.40487693 0 0 0 100.25,72.886719 h 0.86914 a 0.40487693,0.40487693 0 0 0 0.4043,-0.404297 v -6.220703 h 1.73437 a 0.40487693,0.40487693 0 0 0 0.4043,-0.404297 v -0.785156 a 0.40487693,0.40487693 0 0 0 -0.4043,-0.404297 z m 6.298832,0 a 0.40487693,0.40487693 0 0 0 -0.4043,0.404297 v 7.410156 a 0.40487693,0.40487693 0 0 0 0.4043,0.404297 h 0.86718 a 0.40487693,0.40487693 0 0 0 0.4043,-0.404297 v -2.976563 h 3.02734 v 2.976563 a 0.40487693,0.40487693 0 0 0 0.4043,0.404297 h 0.86719 a 0.40487693,0.40487693 0 0 0 0.40429,-0.404297 v -7.410156 a 0.40487693,0.40487693 0 0 0 -0.40429,-0.404297 h -0.86719 a 0.40487693,0.40487693 0 0 0 -0.4043,0.404297 v 2.845703 h -3.02734 v -2.845703 a 0.40487693,0.40487693 0 0 0 -0.4043,-0.404297 z m 7.52343,0 a 0.40487693,0.40487693 0 0 0 -0.40429,0.404297 v 7.410156 a 0.40487693,0.40487693 0 0 0 0.40429,0.404297 h 3.92774 a 0.40487693,0.40487693 0 0 0 0.40429,-0.404297 v -0.785156 a 0.40487693,0.40487693 0 0 0 -0.40429,-0.404297 h -2.6543 v -1.78711 h 2.27149 a 0.40487693,0.40487693 0 0 0 0.40429,-0.404297 v -0.779296 a 0.40487693,0.40487693 0 0 0 -0.40429,-0.404297 h -2.27149 v -1.65625 h 2.48828 a 0.40487693,0.40487693 0 0 0 0.4043,-0.404297 v -0.785156 a 0.40487693,0.40487693 0 0 0 -0.4043,-0.404297 z m 8.24805,0 a 0.40487693,0.40487693 0 0 0 -0.4043,0.404297 v 7.410156 a 0.40487693,0.40487693 0 0 0 0.4043,0.404297 h 0.86914 a 0.40487693,0.40487693 0 0 0 0.4043,-0.404297 v -2.876953 h 2.27148 a 0.40487693,0.40487693 0 0 0 0.4043,-0.404297 v -0.78125 a 0.40487693,0.40487693 0 0 0 -0.4043,-0.404297 h -2.27148 v -1.753906 h 2.48828 a 0.40487693,0.40487693 0 0 0 0.4043,-0.404297 v -0.785156 a 0.40487693,0.40487693 0 0 0 -0.4043,-0.404297 z m 5.16797,0 a 0.40487693,0.40487693 0 0 0 -0.4043,0.404297 v 7.410156 a 0.40487693,0.40487693 0 0 0 0.4043,0.404297 h 3.84375 a 0.40487693,0.40487693 0 0 0 0.20703,-0.05664 0.40487693,0.40487693 0 0 0 0.20703,0.05664 h 2.31445 a 0.40487693,0.40487693 0 0 0 0.4043,-0.404297 v -0.744141 a 0.40487693,0.40487693 0 0 0 -0.4043,-0.404297 h -0.31835 v -5.113281 h 0.31835 a 0.40487693,0.40487693 0 0 0 0.4043,-0.404297 v -0.74414 a 0.40487693,0.40487693 0 0 0 -0.4043,-0.404297 h -2.31445 a 0.40487693,0.40487693 0 0 0 -0.4043,0.404297 v 0.74414 a 0.40487693,0.40487693 0 0 0 0.4043,0.404297 h 0.31836 v 5.113281 h -0.31836 a 0.40487693,0.40487693 0 0 0 -0.17383,0.03906 0.40487693,0.40487693 0 0 0 -0.24023,-0.08008 h -2.57227 v -6.220703 a 0.40487693,0.40487693 0 0 0 -0.40429,-0.404297 z m 7.79297,0 a 0.40487693,0.40487693 0 0 0 -0.4043,0.404297 v 7.410156 a 0.40487693,0.40487693 0 0 0 0.4043,0.404297 h 0.86718 a 0.40487693,0.40487693 0 0 0 0.4043,-0.404297 v -2.396484 h 0.57227 c 0.89681,0 1.66781,-0.253203 2.23437,-0.779297 0.5635,-0.519536 0.85742,-1.227413 0.85742,-2.023438 0,-0.786796 -0.26403,-1.469078 -0.79296,-1.935547 -0.52561,-0.466514 -1.25025,-0.679687 -2.10743,-0.679687 z m -53.796878,0.927734 v 0.220703 a 0.40487693,0.40487693 0 0 0 0.404297,0.404297 h 0.31836 v 5.113281 h -0.31836 a 0.40487693,0.40487693 0 0 0 -0.404297,0.371094 l -2.71289,-3.076172 z m 55.068358,0.666016 h 0.61524 c 0.52184,0 0.85331,0.112963 1.04101,0.271484 0.1877,0.158521 0.29102,0.381638 0.29102,0.791016 0,0.412548 -0.11329,0.661561 -0.33789,0.857422 -0.21712,0.188489 -0.56532,0.310547 -1.10352,0.310547 h -0.50586 z"
       transform="matrix(1.491638,0,0,1.491638,-76.955124,35.572635)" />
    <rect
       y="100.82417"
       x="47.039436"
       height="24.722431"
       width="24.722431"
       id="rect5222"
       style="fill:#638bab;fill-opacity:1;stroke:none;stroke-width:0.26458332;stroke-opacity:1" />
    <rect
       inkscape:export-ydpi="96"
       inkscape:export-xdpi="96"
       y="70.221809"
       x="45.97036"
       height="25.123335"
       width="25.123335"
       id="rect5224"
       style="fill:#725c50;fill-opacity:1;stroke:none;stroke-width:0.26458332;stroke-opacity:1" />
  </g>
</svg>
