<?xml version="1.0" encoding="UTF-8" standalone="no"?>
<!-- Created with Inkscape (http://www.inkscape.org/) -->

<svg
   xmlns:dc="http://purl.org/dc/elements/1.1/"
   xmlns:cc="http://creativecommons.org/ns#"
   xmlns:rdf="http://www.w3.org/1999/02/22-rdf-syntax-ns#"
   xmlns:svg="http://www.w3.org/2000/svg"
   xmlns="http://www.w3.org/2000/svg"
   xmlns:xlink="http://www.w3.org/1999/xlink"
   xmlns:sodipodi="http://sodipodi.sourceforge.net/DTD/sodipodi-0.dtd"
   xmlns:inkscape="http://www.inkscape.org/namespaces/inkscape"
   width="210mm"
   height="297mm"
   viewBox="0 0 210 297"
   version="1.1"
   id="svg8"
   inkscape:version="0.92.3 (2405546, 2018-03-11)"
   sodipodi:docname="ramp.svg">
  <defs
     id="defs2">
    <linearGradient
       inkscape:collect="always"
       id="linearGradient4790">
      <stop
         style="stop-color:#005bd6;stop-opacity:1"
         offset="0"
         id="stop4786" />
      <stop
         style="stop-color:#ea0000;stop-opacity:1"
         offset="1"
         id="stop4788" />
    </linearGradient>
    <linearGradient
       inkscape:collect="always"
       id="linearGradient4671">
      <stop
         style="stop-color:#f0a000;stop-opacity:1"
         offset="0"
         id="stop4667" />
      <stop
         style="stop-color:#629bbc;stop-opacity:1"
         offset="1"
         id="stop4669" />
    </linearGradient>
    <linearGradient
       inkscape:collect="always"
       xlink:href="#linearGradient4671"
       id="linearGradient4673"
       x1="218.62646"
       y1="70.956797"
       x2="280.90026"
       y2="70.956797"
       gradientUnits="userSpaceOnUse"
       gradientTransform="matrix(2.0257511,0,0,1,-224.25633,0)" />
    <linearGradient
       inkscape:collect="always"
       xlink:href="#linearGradient4790"
       id="linearGradient4792"
       x1="826.71289"
       y1="268.43554"
       x2="1316.3086"
       y2="268.43554"
       gradientUnits="userSpaceOnUse"
       gradientTransform="matrix(-0.26458333,0,0,-0.26458333,567.00776,142.04714)" />
  </defs>
  <sodipodi:namedview
     id="base"
     pagecolor="#ffffff"
     bordercolor="#666666"
     borderopacity="1.0"
     inkscape:pageopacity="0.0"
     inkscape:pageshadow="2"
     inkscape:zoom="1.979899"
     inkscape:cx="982.02901"
     inkscape:cy="830.16538"
     inkscape:document-units="mm"
     inkscape:current-layer="layer1"
     showgrid="false"
     inkscape:window-width="1920"
     inkscape:window-height="1027"
     inkscape:window-x="1912"
     inkscape:window-y="-8"
     inkscape:window-maximized="1" />
  <metadata
     id="metadata5">
    <rdf:RDF>
      <cc:Work
         rdf:about="">
        <dc:format>image/svg+xml</dc:format>
        <dc:type
           rdf:resource="http://purl.org/dc/dcmitype/StillImage" />
        <dc:title></dc:title>
      </cc:Work>
    </rdf:RDF>
  </metadata>
  <g
     inkscape:label="Layer 1"
     inkscape:groupmode="layer"
     id="layer1">
    <g
       id="g4659"
       inkscape:export-xdpi="96"
       inkscape:export-ydpi="96"
       transform="translate(-96.484299,6.6817382)">
      <g
         transform="translate(199.76042,0.26461608)"
         id="g879" />
      <g
         inkscape:export-ydpi="96"
         inkscape:export-xdpi="96"
         transform="translate(-93.110634,-77.928982)"
         id="g944">
        <rect
           style="fill:#f7e6d2;fill-opacity:1;stroke:none;stroke-width:0.08620606;stroke-opacity:1"
           id="rect887"
           width="135.46666"
           height="135.46666"
           x="110.36905"
           y="95.765465" />
        <path
           inkscape:connector-curvature="0"
           style="fill:#e7be94;fill-opacity:1;stroke:none;stroke-width:0.99999994px;stroke-linecap:butt;stroke-linejoin:miter;stroke-opacity:1"
           d="m 511.8418,361.94727 c -1.75666,0.6587 -3.10483,1.31576 -3.73633,1.94726 -8.97101,8.97101 -66.4406,1.00977 -80.81055,1.00977 -1.85067,0 -5.95093,-0.30352 -10.15234,-0.42383 v 127.27344 c 21.27078,8.06124 61.61867,13.61713 91.80664,7.26562 -0.0302,1.29823 0.62954,2.71743 2.1875,4.27539 5.96836,5.96841 9.1662,23.27158 19.19336,28.28516 10.76387,5.38193 28.16363,7.73723 49.09375,7.89453 -37.8672,6.08285 -74.66809,10.85478 -100.61133,2.20703 -9.82318,-3.2744 -47.20799,-18.40176 -61.66992,-20.36523 v 58.77343 c 16.39241,-1.12866 54.99888,-5.93101 87.78906,-9.8457 -4.49276,2.24746 -14.2257,5.7832 -16.01758,5.7832 -5.8306,0 -31.80411,6.55017 -35.35547,10.10157 -4.65348,4.65346 -21.29459,4.22785 -36.41601,3.0625 v 13.86718 c 37.08603,1.89559 94.24465,1.18118 124.48047,0.63672 -8.07409,5.6538 -16.1835,12.57604 -24.42578,20.81836 -60.6646,60.66456 -30.68222,8.39821 -63.63868,-8.08008 -7.18322,-3.59161 -14.98462,4.26447 -19.19336,7.07032 -5.41936,3.6129 -11.20922,6.42202 -17.22265,8.72461 v 52.68945 c 11.46467,2.95297 23.07149,5.25586 36.41601,5.25586 17.06589,0 31.96901,-4.69558 41.41602,-14.14258 8.68252,-8.68252 90.21797,-21.654 107.07617,-27.27344 33.48408,-11.16136 66.44839,10.71719 100.00391,-6.06054 17.26167,-8.63082 52.51749,6.05899 67.68164,9.09179 29.36167,5.87237 62.42014,-6.38056 92.93359,-2.02148 38.05405,5.43627 44.97551,13.24623 66.47266,12.54101 v -55.56836 c -29.96671,12.19109 -56.40074,28.88477 -87.68555,28.88477 -18.81914,0 -20.66275,-23.46321 -34.3457,-30.30469 -7.72354,-3.86177 -84.69198,-15.23213 -90.91406,-12.12109 -3.39255,1.69629 -14.98704,12.2864 -20.20313,7.07031 -10.57054,-10.57054 -36.09523,5.18678 -50.50781,-2.01953 -0.38196,-0.19087 -0.75789,-0.36208 -1.13867,-0.54883 1.78068,-1.35689 3.51469,-2.83699 5.17968,-4.50195 7.47557,-7.4756 15.62418,-19.93412 24.24414,-24.24414 5.18858,-2.59423 12.1515,10.07113 17.17188,5.05078 0.37795,-0.37795 1.99736,-7.09253 1.00976,-8.08008 -8.42131,-8.42132 -15.28728,-14.50945 -21.27148,-18.83398 22.77222,-2.4257 41.30159,-2.55193 46.52539,2.67187 34.80034,34.80034 137.80885,-12.41397 174.75781,6.06055 6.7694,3.3847 24.2605,12.34903 37.17774,14.68359 v -46.1582 c -39.99861,6.96604 -84.64704,15.30878 -90.7168,17.33203 -55.38557,18.46186 -99.83313,-5.78626 -150.51172,-12.12109 -1.85004,-0.23131 -3.73485,-0.42008 -5.65039,-0.57032 45.51205,-8.20905 87.89608,-19.84452 107.67578,-29.73437 45.93646,-22.96823 79.88174,34.30327 120.20703,14.14062 4.64521,-2.3226 11.40134,-4.02797 18.9961,-5.53125 v -59.47461 c -7.92032,0.13495 -15.48252,0.35743 -22.02539,0.35743 -17.0504,0 -33.56913,0.94986 -49.88281,2.42773 -4.38596,-0.42724 -8.91252,-0.82224 -13.39844,-1.13476 6.29469,-3.44962 11.9697,-7.55955 16.81445,-12.4043 6.55552,-6.55552 22.24822,-4.06658 27.27344,-9.0918 10.96101,-10.96093 24.62022,8.45811 26.26367,10.10156 1.60442,1.60445 7.65874,0.54361 14.95508,-1.68945 v -21.08594 c -10.87552,-2.36403 -22.37715,-5.07466 -34.10547,-7.4375 11.25005,-1.78681 22.55207,-3.18453 34.10547,-3.79492 v -30.80664 c -16.013,-2.4102 -33.2487,-2.92219 -45.25977,-8.92773 -13.82593,-6.91296 -147.04049,21.78264 -152.5332,27.27539 -6.17265,6.17265 -97.5115,-4.2784 -114.14649,4.03906 -31.31058,15.65532 -39.63859,-18.71098 -53.92968,-34.27148 z m -5.75586,32.25195 c 26.23419,0 47.39918,9.32208 69.38476,18.55664 -24.78795,-2.21511 -47.81683,-5.75215 -65.34375,-14.51563 -3.60797,-1.804 -8.73636,-3.0125 -14.86328,-3.72461 3.59951,-0.20485 7.20681,-0.3164 10.82227,-0.3164 z m 247.08008,34.31445 c -14.90986,4.8344 -37.03435,11.61464 -50.09961,5.08203 -1.15786,-0.57894 -2.33976,-1.13174 -3.53125,-1.67187 17.92119,-0.6234 36.22715,-1.89661 53.63086,-3.41016 z M 555.00781,435.5 c 4.49118,-0.0714 8.02619,0.49686 9.66602,2.13672 7.49287,7.49287 28.0393,26.3866 48.48828,16.16211 13.27876,-6.63938 63.63537,-14.65011 78.79101,-7.07227 16.85212,8.42608 39.60517,14.51757 63.42383,16.84961 -0.94019,0.10696 -1.87127,0.21915 -2.81445,0.32422 -37.24577,4.13843 -77.69846,1.51848 -115.64258,-0.75781 -12.97568,-7.53271 -30.07254,-7.04887 -46.4414,-2.17188 -3.25962,-0.0654 -6.47467,-0.10156 -9.64063,-0.10156 -54.9143,0 -86.82188,18.52508 -123.29492,-3.91602 20.14567,-7.84365 42.65027,-15.27734 56.625,-15.27734 5.2933,0 27.36632,-5.96178 40.83984,-6.17578 z m 103.98047,42.04297 c 27.78112,0.47607 54.67528,1.50976 62.25977,1.50976 5.30917,0 10.54776,-0.11684 15.73437,-0.3164 -28.38984,4.82748 -58.42465,5.79612 -77.99414,-1.19336 z m -108.8457,6.00781 c -0.55329,0.51897 -1.10698,1.03858 -1.63086,1.5625 -0.55495,0.55495 -6.12841,1.31168 -12.9082,2.51758 0.9883,-0.80084 1.92657,-1.63755 2.80664,-2.51758 2.21586,-2.21578 7.58019,-1.28289 11.73242,-1.5625 z m 379,195.78906 c -26.24717,4.98648 -54.36982,8.81446 -77.58399,8.81446 -65.35166,0 -137.5168,4.03906 -201.02148,4.03906 -3.89873,0 -25.76466,-11.61034 -32.32422,-5.05078 -14.7134,14.7134 -92.76141,10.27379 -104.04492,-1.00977 -1.34268,-1.34267 -52.20256,6.46927 -97.02539,14.89844 v 22.51758 c 3.14047,-1.27194 5.93274,-2.89173 8.13086,-5.08985 10.2455,-10.2455 15.1708,-22.22461 34.3457,-22.2246 11.76669,0 57.67859,4.13952 59.59961,6.06054 4.53891,4.53891 60.57393,34.3792 75.75977,19.19336 6.30236,-6.30232 13.55259,-10.81636 22.2246,-15.15234 10.79675,-5.39838 36.66797,4.74805 45.45704,-4.04102 9.55736,-9.55737 47.00347,6.29711 59.59765,0 38.4435,-19.22173 116.34184,7.28172 161.625,-4.03906 5.38171,-1.34544 27.62166,-12.7846 32.32422,-8.08203 3.20826,3.20826 7.64097,5.81419 12.93555,7.8789 z m -72.45313,44.5586 c -7.35579,-0.034 -18.67054,5.67187 -21.29297,5.67187 -13.21005,0 -98.17208,9.67413 -105.85937,15.98828 33.63171,0.0265 80.14755,0.44975 83.63477,2.19336 7.77909,3.88955 23.49322,13.13282 30.30468,13.13282 6.22277,0 39.33238,-9.15591 28.28516,-20.20313 -4.20896,-4.20896 -5.89264,-10.94339 -10.10156,-15.15234 -1.16089,-1.16085 -2.91109,-1.62122 -4.97071,-1.63086 z m -127.15234,21.66015 c -19.31694,-0.0151 -34.47756,0.0986 -34.55273,0.17383 -0.3961,0.3961 -0.81241,0.77709 -1.23829,1.15039 15.18951,2.9441 29.4613,4.9723 35.58399,-1.15039 0.0575,-0.0575 0.13597,-0.11562 0.20703,-0.17383 z m -35.79102,1.32422 c -19.05962,-3.69418 -39.56532,-8.83311 -47.24804,-1.15039 -4.91804,4.918 -17.63099,-0.27515 -24.24414,3.03125 -28.98652,14.49324 -76.25326,11.62956 -101.01563,-13.13281 -2.20792,-2.20793 -19.67356,1.00976 -24.24414,1.00976 -36.92508,0 -59.84774,4.38336 -79.85156,15.14063 v 11.18555 c 35.14265,-12.55601 76.9346,-15.10055 99.04492,7.00976 3.8324,3.83237 16.51064,3.37783 20.20312,7.07032 1.01745,1.01741 23.29242,0.95168 24.24415,0 18.98071,-18.98072 82.43146,7.47283 101.01562,-11.11133 8.2063,-8.20634 23.2219,-11.27398 32.0957,-19.05274 z m 200.82813,13.76758 c -44.36924,-0.35376 -94.36921,7.14073 -114.73633,27.50781 -6.05291,6.05295 -94.59406,3.68 -115.1582,24.24414 -0.12964,0.12964 -0.28457,0.23875 -0.42774,0.35743 4.16735,0.59244 7.5507,1.1699 9.51953,1.66211 38.25359,9.56337 132.84348,15.6487 159.60352,-11.11133 16.25461,-16.25458 68.09709,-2.43694 82.83203,-17.17188 1.81842,-1.81841 6.49385,-2.77339 12.93555,-3.09375 v -20.42383 c -10.61256,-1.179 -22.37242,-1.87342 -34.56836,-1.9707 z m -230.32227,52.10938 c -9.16323,-1.30273 -22.5456,-2.66753 -36.02343,-3.39063 12.43729,3.90845 30.06055,8.32654 36.02343,3.39063 z m -36.02343,-3.39063 c -5.54215,-1.74164 -10.06383,-3.38 -12.03516,-4.03711 -22.18534,-7.3951 -50.9911,-4.04101 -76.77148,-4.04101 -44.27793,0 -83.17498,6.07439 -122.2793,12.23828 v 60.41797 h 62.23437 c 14.99656,-5.9756 27.9788,-12.30694 34.79102,-19.11915 1.71613,-1.71613 13.23874,-8.53201 18.18164,-6.06054 14.74792,7.37394 32.82434,17.10708 52.20703,25.17969 h 131.05274 c 13.08639,-11.53825 28.28271,-20.54834 40.99414,-33.25977 1.92865,-1.92866 9.56093,-1.01172 13.13281,-1.01172 16.30303,0 42.67963,4.29487 52.52734,14.14258 8.14277,8.14276 45.9906,-3.2674 56.56836,2.02148 2.82751,1.41376 12.73002,10.89823 20.06641,18.10743 h 30.24414 v -40.49805 c -22.733,-14.18776 -47.0821,-24.27531 -56.3711,-14.98633 -12.33581,12.33581 -52.03276,19.19336 -71.7207,19.19336 -20.05088,0 -86.32988,-9.8673 -102.02539,-2.01953 -6.68852,3.34424 -70.77207,19.13027 -72.73047,17.17187 -13.60815,-13.60815 -24.39203,-30.34509 -41.5625,-41.11523 7.64844,-3.09177 25.54391,-3.28739 43.4961,-2.32422 z"
           transform="scale(0.26458333)"
           id="path895" />
        <path
           inkscape:connector-curvature="0"
           style="fill:#eed2b1;fill-opacity:1;stroke:none;stroke-width:0.75861865px;stroke-linecap:butt;stroke-linejoin:miter;stroke-opacity:1"
           d="m 929.14258,571.34375 c -28.0365,7.73187 -87.65015,16.0729 -105.41211,26.29492 -1.71613,0.98767 -13.23874,4.91059 -18.18164,3.48828 -37.11402,-10.67958 -95.26828,-29.97532 -142.43164,-20.92773 -3.25433,0.62426 -13.86087,-1.32439 -16.16211,0 -3.61017,2.07764 -15.32063,1.25957 -19.19336,3.48828 -14.16083,8.14964 -31.93716,13.72802 -46.4668,22.08984 -1.92865,1.10994 -9.56093,0.58204 -13.13281,0.58204 -16.30303,0 -42.67963,-2.47128 -52.52734,-8.13868 -8.14277,-4.68616 -45.9906,1.87971 -56.56836,-1.16406 -4.02006,-1.1568 -22.45073,-11.75771 -27.27344,-14.5332 -2.93432,-1.6887 -8.23313,-2.56964 -14.65039,-2.90235 v 33.19532 c 20.07976,6.54384 39.83181,10.44376 47.98437,5.75195 12.33581,-7.09928 52.03277,-11.04688 71.72071,-11.04688 20.05088,0 86.32988,5.67854 102.02539,1.16211 6.68851,-1.92461 70.77207,-11.00986 72.73047,-9.88281 13.60815,7.83152 24.39203,17.46384 41.5625,23.66211 -7.64845,1.77929 -25.54391,1.8922 -43.4961,1.33789 5.54215,1.00233 10.06383,1.94604 12.03516,2.32422 22.18533,4.2559 50.9911,2.32422 76.77148,2.32422 46.74936,0 87.49809,-3.89451 128.82813,-7.63477 0.61843,0.003 1.2219,-0.003 1.83789,-0.002 z m -219.47266,52.45703 c -12.43729,-2.24931 -30.06055,-4.79183 -36.02344,-1.95117 9.16324,0.74971 22.54561,1.53505 36.02344,1.95117 z m -36.02344,-1.95117 c -4.16734,-0.34091 -7.5507,-0.67376 -9.51953,-0.95703 -38.25358,-5.50375 -132.84347,-9.00595 -159.60351,6.39453 -16.25462,9.35456 -68.09709,1.40284 -82.83203,9.88281 -0.88018,0.50655 -2.46315,0.89116 -4.54883,1.18164 v 12.81446 c 8.29743,0.39438 17.11244,0.63024 26.18164,0.67187 44.36923,0.20372 94.36921,-4.10878 114.73633,-15.83008 6.05291,-3.48347 94.59406,-2.1184 115.1582,-13.95312 0.12964,-0.0745 0.28457,-0.13705 0.42773,-0.20508 z m 115.71485,20.12695 c -5.81489,0.005 -11.6218,0.15194 -12.09766,0.42578 -18.98071,10.92344 -82.43146,-4.30066 -101.01562,6.39454 -8.2063,4.72278 -23.2219,6.48814 -32.09571,10.96484 19.05963,2.12598 39.56533,5.08355 47.24805,0.66211 4.91804,-2.8303 17.63099,0.1587 24.24414,-1.74414 28.98652,-8.34093 76.25326,-6.69223 101.01563,7.55859 2.20792,1.27064 19.67355,-0.58203 24.24414,-0.58203 42.17551,0 66.08288,-3.29812 88.23828,-11.58789 v -5.42774 c -36.6363,8.76173 -83.53064,11.58518 -107.43164,-2.16992 -3.83241,-2.2055 -16.51064,-1.94332 -20.20313,-4.06836 -0.50872,-0.29276 -6.3316,-0.43051 -12.14648,-0.42578 z m -145.20899,17.78516 c -15.1895,-1.69433 -29.4613,-2.86155 -35.58398,0.66211 -0.0575,0.034 -0.13598,0.066 -0.20703,0.0996 19.31694,0.008 34.47756,-0.0562 34.55273,-0.0996 0.3961,-0.22791 0.81241,-0.44728 1.23828,-0.66211 z m -35.79101,0.76172 c -33.63171,-0.0151 -80.14755,-0.25833 -83.63477,-1.26172 -7.7791,-2.23843 -23.49322,-7.5586 -30.30468,-7.5586 -6.22277,0 -39.33238,5.26926 -28.28516,11.62696 4.20896,2.42226 5.89264,6.29844 10.10156,8.7207 1.16088,0.66807 2.91109,0.9339 4.9707,0.93945 7.3558,0.0189 18.67055,-3.26562 21.29297,-3.26562 13.21006,0 98.17208,-5.56738 105.85938,-9.20117 z m 320.78125,11.20117 c -6.51271,0.88214 -12.50238,2.08379 -16.51758,4.39453 -10.24551,5.89633 -15.1708,12.79102 -34.3457,12.79102 -11.76669,0 -57.67859,-2.38274 -59.59961,-3.48828 -4.53891,-2.61215 -60.57393,-19.7844 -75.75977,-11.04493 -6.30236,3.62699 -13.55259,6.22531 -22.22461,8.72071 -10.79675,3.10677 -36.66796,-2.73393 -45.45703,2.32422 -9.55737,5.50027 -47.00348,-3.62401 -59.59766,0 -38.4435,11.06214 -116.34183,-4.19094 -161.625,2.32421 -5.3817,0.77432 -27.62165,7.35868 -32.32421,4.65235 -1.31632,-0.75755 -2.84652,-1.45416 -4.54883,-2.09766 v 7.44531 c 23.75662,-2.42396 48.44049,-4.18554 69.19726,-4.18554 65.35166,0 137.51681,-2.32422 201.02149,-2.32422 3.89873,0 25.76466,6.68128 32.32422,2.90625 14.7134,-8.46758 92.7614,-5.91169 104.04492,0.58203 1.42712,0.82132 58.8182,-4.30678 105.41211,-9.49023 z m -44.80274,20.67578 c -17.06589,0 -31.96901,2.7019 -41.41601,8.13867 -8.68252,4.9968 -90.21797,12.46132 -107.07617,15.69532 -33.48409,6.42338 -66.4484,-6.16736 -100.00391,3.48828 -17.26167,4.96705 -52.5175,-3.48704 -67.68164,-5.23243 -29.36168,-3.37957 -62.42015,3.67273 -92.93359,1.16407 -32.67193,-2.68609 -42.38911,-6.37951 -58.08594,-7.11524 v 29.83008 c 26.60303,-6.6993 50.96494,-14.57617 79.29883,-14.57617 18.81913,0 20.66275,13.50217 34.3457,17.43945 7.72354,2.22248 84.69198,8.76696 90.91406,6.97656 3.39254,-0.97621 14.98704,-7.0722 20.20313,-4.07031 10.57054,6.08338 36.09522,-2.98321 50.50781,1.16406 0.38196,0.10999 0.75788,0.20674 1.13867,0.31446 -1.78069,0.78089 -3.51469,1.63361 -5.17969,2.59179 -7.47556,4.30224 -15.62417,11.4727 -24.24414,13.95313 -5.18857,1.49299 -12.15149,-5.79743 -17.17187,-2.9082 -0.37795,0.21732 -1.99736,4.08206 -1.00977,4.65039 8.42132,4.84649 15.28729,8.35106 21.27149,10.83984 -22.77222,1.39601 -41.3016,1.46725 -46.52539,-1.53906 -34.80034,-20.02768 -137.80885,7.14578 -174.75782,-3.48633 -5.38262,-1.54886 -17.53913,-5.11907 -28.79101,-7.19727 v 24.47461 c 37.59827,-3.81248 76.69083,-8.05687 82.33008,-9.13867 55.38557,-10.62482 99.83313,3.32892 150.51172,6.97461 1.85004,0.13304 3.73485,0.24195 5.65039,0.32813 -45.51205,4.72433 -87.89608,11.42165 -107.67579,17.11328 -45.93645,13.21825 -79.88174,-19.74232 -120.20703,-8.13867 -2.8356,0.81594 -6.49835,1.49279 -10.60937,2.09961 v 35.2246 c 4.8171,-0.0603 9.46472,-0.11914 13.63867,-0.11914 17.05039,0 33.56912,-0.54597 49.88281,-1.39648 4.38596,0.24605 8.91252,0.47248 13.39844,0.65234 -6.29469,1.98524 -11.9697,4.35052 -16.81445,7.13868 -6.55552,3.77272 -22.24822,2.3404 -27.27344,5.23242 -10.96101,6.30807 -24.62022,-4.86668 -26.26367,-5.8125 -0.9199,-0.52942 -3.3356,-0.54144 -6.56836,-0.22852 v 14.4082 c 8.37146,1.07736 16.93137,2.18819 25.71875,3.20704 -8.51355,0.77819 -17.05977,1.42233 -25.71875,1.8457 v 17.56055 h 120.35156 c 34.22437,-3.93161 66.41391,-8.53101 69.05469,-10.05079 6.17265,-3.55237 97.5115,2.46252 114.14648,-2.32421 24.16975,-6.95489 34.64029,3.24082 44.73438,12.375 H 929.14258 V 808.6543 c -0.82116,-0.16219 -1.61583,-0.34991 -2.375,-0.56836 -18.73667,-5.3915 -64.47567,-9.71308 -97.81836,-5.67578 0.0302,-0.74714 -0.62954,-1.56432 -2.1875,-2.46094 -5.96837,-3.43484 -9.1662,-13.39401 -19.19336,-16.2793 -10.76387,-3.09732 -28.16363,-4.45245 -49.09375,-4.54297 37.8672,-3.50071 74.66808,-6.2463 100.61133,-1.26953 11.39773,2.1865 59.93102,13.56608 66.66992,11.62696 1.04627,-0.30107 2.24943,-0.66273 3.38672,-1 v -32.4961 c -0.1202,-0.0725 -0.23287,-0.1521 -0.35547,-0.22266 -1.73975,-1.00127 -53.67333,2.7585 -95.82031,5.6543 4.49276,-1.29343 14.2257,-3.32812 16.01758,-3.32812 5.8306,0 31.80411,-3.77064 35.35546,-5.81446 5.55428,-3.1965 28.0677,-2.23237 44.80274,-1.3457 v -8.10352 c -36.25451,-1.44757 -100.22652,-0.99843 -132.86719,-0.66015 8.07409,-3.2538 16.1835,-7.23697 24.42578,-11.98047 60.66459,-34.91259 30.68221,-4.83294 63.63867,4.65039 7.18322,2.06695 14.98463,-2.45555 19.19336,-4.07031 7.89705,-3.02984 16.58577,-5.07117 25.60938,-6.65625 v -27.38672 c -14.28037,-2.2753 -28.21339,-4.32422 -44.80274,-4.32422 z m -82.04492,116.5625 c -0.98831,0.46091 -1.92658,0.94081 -2.80664,1.44727 -2.21586,1.27521 -7.58019,0.73945 -11.73242,0.90039 0.55328,-0.29859 1.10698,-0.59886 1.63086,-0.90039 0.55495,-0.31937 6.12841,-0.75327 12.9082,-1.44727 z M 643.2207,811.875 c 13.50361,0.0162 25.90471,0.88134 35.68946,2.89258 -27.78112,-0.27402 -54.67528,-0.86914 -62.25977,-0.86914 -5.30918,0 -10.54777,0.0667 -15.73437,0.18164 14.19492,-1.38911 28.80107,-2.22124 42.30468,-2.20508 z m 196.57422,8.35352 c 13.84736,0.0178 26.88316,1.54559 40.56055,6.38867 -20.14568,4.51404 -42.65027,8.79297 -56.625,8.79297 -5.29331,0 -27.36632,3.42956 -40.83985,3.55273 -4.49117,0.0412 -8.02619,-0.28492 -9.66601,-1.22851 -7.49288,-4.31218 -28.0393,-15.18697 -48.48828,-9.30274 -13.27877,3.82099 -63.63538,8.43136 -78.79102,4.07031 -16.85212,-4.84924 -39.60517,-8.35515 -63.42383,-9.69726 0.9402,-0.0616 1.87128,-0.12508 2.81446,-0.18555 37.24577,-2.38167 77.69846,-0.87447 115.64258,0.43555 12.97568,4.33512 30.07253,4.05671 46.4414,1.25 3.25962,0.0378 6.47467,0.0586 9.64063,0.0586 34.32144,0 59.65544,-4.16441 82.73437,-4.13476 z m -219.36914,18.2832 c 5.35564,-0.0536 10.32336,0.37202 14.40625,1.54687 1.15786,0.33298 2.33976,0.65203 3.53125,0.96289 -17.9212,0.35868 -36.22715,1.09183 -53.63086,1.9629 10.25053,-1.91278 23.91095,-4.35483 35.69336,-4.47266 z m 142.00195,13.54101 c 24.78796,1.2748 47.81684,3.31012 65.34375,8.35352 3.60798,1.0382 8.73637,1.73472 14.86329,2.14453 -3.59951,0.11792 -7.20681,0.18164 -10.82227,0.18164 -26.23419,0 -47.39918,-5.36518 -69.38477,-10.67969 z"
           id="path918"
           transform="scale(0.26458333)" />
        <path
           inkscape:connector-curvature="0"
           style="fill:#f5e0c3;fill-opacity:1;stroke:none;stroke-width:0.75861865px;stroke-linecap:butt;stroke-linejoin:miter;stroke-opacity:1"
           d="m 824.42969,433.88867 c -9.40479,-0.0529 -18.63539,0.64733 -27.47852,2.34375 -3.25432,0.62427 -13.86087,-1.32438 -16.16211,0 -3.61016,2.07765 -15.32063,1.25957 -19.19336,3.48828 -14.16083,8.14965 -31.93716,13.72802 -46.46679,22.08985 -1.92866,1.10993 -9.56094,0.58398 -13.13282,0.58398 -16.30303,0 -42.67963,-2.47322 -52.52734,-8.14062 -8.14277,-4.68616 -45.9906,1.88165 -56.56836,-1.16211 -4.02006,-1.1568 -22.45072,-11.75966 -27.27344,-14.53516 -14.49131,-8.33975 -86.17046,2.75668 -69.70117,4.65234 5.74473,8.21847 84.46955,42.07712 103.03516,31.39258 12.33581,-7.09927 52.03276,-11.04492 71.7207,-11.04492 20.05089,0 86.32988,5.67853 102.02539,1.16211 6.68852,-1.92461 70.77207,-11.00987 72.73047,-9.88281 13.60815,7.83152 24.39203,17.46383 41.5625,23.66211 -7.64844,1.77929 -25.5439,1.89219 -43.49609,1.33789 5.54214,1.00233 10.06383,1.94408 12.03515,2.32226 21.28806,4.08377 48.64613,2.4867 73.60352,2.34961 V 454.16992 C 899.7256,445.53405 860.8579,434.09345 824.42969,433.88867 Z m 19.07422,45.94727 c -12.4373,-2.24931 -30.06056,-4.79183 -36.02344,-1.95117 9.16324,0.7497 22.5456,1.53504 36.02344,1.95117 z m -36.02344,-1.95117 c -4.16735,-0.34092 -7.5507,-0.67376 -9.51953,-0.95704 -38.25358,-5.50374 -132.84348,-9.00594 -159.60352,6.39454 -16.25461,9.35455 -68.09709,1.40283 -82.83203,9.88281 -10.28311,5.91794 -110.66695,-3.81137 -118.18945,-8.14063 -6.9834,-4.01892 -6.83042,-5.94925 -14.14063,-1.74218 -3.48559,2.00594 2.39819,6.61139 3.0293,6.97461 43.1771,24.8485 39.17528,6.50919 90.91406,13.95312 15.08308,2.17009 36.77854,3.51635 60.01953,3.62305 44.36924,0.20371 94.36921,-4.10878 114.73633,-15.83008 6.05291,-3.48348 94.59406,-2.1184 115.1582,-13.95313 0.12964,-0.0744 0.28457,-0.13704 0.42774,-0.20507 z m 115.71484,20.12695 c -5.81488,0.005 -11.62179,0.15193 -12.09765,0.42578 -18.98072,10.92344 -82.43146,-4.30066 -101.01563,6.39453 -8.2063,4.72279 -23.2219,6.48815 -32.0957,10.96485 19.05963,2.12598 39.56532,5.08355 47.24805,0.6621 4.91803,-2.83029 17.63098,0.15675 24.24414,-1.74609 21.97428,-6.32314 54.44723,-6.8984 79.66406,-0.60156 v -16.04102 c -1.848,-0.0357 -3.85261,-0.0603 -5.94727,-0.0586 z m -145.20898,17.78516 c -15.18951,-1.69433 -29.4613,-2.86155 -35.58399,0.6621 -0.0575,0.034 -0.13597,0.066 -0.20703,0.0996 19.31694,0.008 34.47756,-0.0561 34.55274,-0.0996 0.39609,-0.2279 0.8124,-0.44728 1.23828,-0.6621 z m -35.79102,0.76171 c -33.63171,-0.0151 -80.14754,-0.25833 -83.63476,-1.26171 -7.7791,-2.23843 -23.49323,-7.5586 -30.30469,-7.5586 -6.22277,0 -39.33238,5.26926 -28.28516,11.62695 4.20896,2.42227 5.89265,6.29845 10.10157,8.72071 1.16088,0.66807 2.91108,0.93194 4.9707,0.9375 7.35579,0.0189 18.67054,-3.26367 21.29297,-3.26367 13.21005,0 98.17208,-5.56739 105.85937,-9.20118 z m 146.80078,11.40235 c -5.11083,0.0835 -9.39484,0.81056 -12.24218,2.44922 -6.30237,3.62698 -13.5526,6.2253 -22.22461,8.7207 -10.79675,3.10677 -36.66797,-2.73197 -45.45703,2.32617 -9.55737,5.50027 -47.00348,-3.624 -59.59766,0 -38.4435,11.06215 -116.34184,-4.19093 -161.625,2.32422 -5.38171,0.77431 -27.62166,7.35672 -32.32422,4.65039 -23.221,-13.36377 -110.26702,-8.62682 -128.29101,1.74609 -0.72163,0.4153 31.4081,3.48633 36.36718,3.48633 10.51911,0 17.11584,6.81878 30.28711,6.8418 1.8816,0.004 3.8976,-0.1333 6.07813,-0.44727 34.42144,-4.95239 83.46771,-10.46484 120.20703,-10.46484 65.35166,0 137.5168,-2.32422 201.02148,-2.32422 3.89874,0 25.76466,6.68323 32.32422,2.9082 9.85083,-5.66916 48.03678,-6.38154 75.62305,-4.29492 V 534.1582 c -12.95193,-3.30028 -28.63315,-6.38528 -40.14649,-6.19726 z M 543.9668,564.44336 c -10.71325,0.1025 -25.00882,1.45892 -49.05078,4.91797 -11.93583,1.71726 -31.79318,6.08909 -39.39649,10.46484 -5.79209,3.33336 -10.09504,-7.56174 -14.14258,-5.23242 -5.93567,3.41597 29.72699,29.06836 44.44727,29.06836 57.96555,0 95.18529,-23.83594 144.45117,-23.83594 18.81914,0 20.66276,13.50412 34.3457,17.44141 7.72354,2.22247 84.69198,8.76501 90.91407,6.97461 3.39254,-0.97622 14.98703,-7.07025 20.20312,-4.06836 10.57055,6.08337 36.09523,-2.98517 50.50781,1.16211 0.38196,0.10998 0.75789,0.20869 1.13868,0.3164 -1.78069,0.78089 -3.5147,1.63166 -5.17969,2.58985 -7.47557,4.30223 -15.62417,11.47269 -24.24414,13.95312 -5.18858,1.49299 -12.15149,-5.79547 -17.17188,-2.90625 -0.37795,0.21733 -1.99735,4.08207 -1.00976,4.65039 8.42131,4.84649 15.28728,8.34911 21.27148,10.83789 -22.77222,1.39601 -41.30159,1.46921 -46.52539,-1.53711 -34.80034,-20.02767 -137.80885,7.14384 -174.75781,-3.48828 -9.16173,-2.63629 -37.97074,-11.16261 -48.48633,-8.13672 -22.70865,6.53443 -65.6572,5.80928 -80.8125,14.53125 -3.04528,1.75253 25.01434,16.14129 27.27344,17.44141 1.78632,1.02803 144.39164,-13.55393 155.56445,-15.69727 55.38558,-10.62481 99.83313,3.33087 150.51172,6.97657 1.85004,0.13304 3.73485,0.24195 5.65039,0.32812 -45.51205,4.72434 -87.89608,11.4197 -107.67578,17.11133 -45.93645,13.21826 -79.88174,-19.74036 -120.20703,-8.13672 -17.28371,4.97341 -63.39144,5.08792 -75.76172,12.20703 -2.99131,1.72154 -6.78065,3.70537 -10.95117,5.6875 -3.33778,-0.53635 -12.47643,-2.5571 -14.30274,-0.45507 -1.73219,1.99373 2.19326,3.78573 3.03125,5.23242 0.0189,0.034 0.0417,0.0636 0.0605,0.0957 -7.1116,2.79269 -14.36466,5.0378 -20.26367,5.7168 12.4797,3.43249 27.71352,5.20119 44.19922,6.04297 22.58642,4.19183 55.19262,2.67773 77.01757,2.67773 17.0504,0 33.56913,-0.54598 49.88282,-1.39648 4.38595,0.24604 8.91251,0.47247 13.39843,0.65234 -6.29469,1.98523 -11.9697,4.35051 -16.81445,7.13867 -6.55551,3.77273 -22.24821,2.3404 -27.27344,5.23242 -10.961,6.30807 -24.62022,-4.86862 -26.26367,-5.81445 -4.5541,-2.62095 -44.72542,6.9974 -48.48828,9.88477 18.79094,0.80352 42.75732,4.61906 67.63867,7.5039 -15.21543,1.39079 -30.52256,2.37891 -46.42383,2.37891 -24.02596,0 -37.71041,3.61524 -52.52929,9.30078 -2.63872,1.01238 -17.99705,11.04492 -15.15235,11.04492 20.36281,0 44.67391,-7.5239 68.69141,-4.06836 18.68107,2.68774 41.65374,2.10284 56.56836,6.39453 13.82593,3.97845 147.04049,-12.53618 152.5332,-15.69726 6.17265,-3.55238 97.5115,2.46251 114.14649,-2.32422 39.92405,-11.48822 42.47957,23.83594 67.67968,23.83594 v -0.002 c 1.34155,0 3.9102,-0.15175 6.9336,-0.375 v -25.68554 c -11.23855,-2.00106 -21.95931,-4.65099 -32.88086,-7.29102 11.46309,0.58953 22.5403,1.34528 32.88086,2.48242 v -16.28125 c -4.43271,0.38815 -8.74832,0.67544 -12.41797,0.70899 -4.49118,0.0412 -8.02619,-0.28688 -9.66602,-1.23047 -7.49287,-4.31218 -28.03929,-15.18502 -48.48828,-9.30078 -13.27876,3.82099 -63.63537,8.43136 -78.79101,4.07031 -16.85212,-4.84925 -39.60517,-8.35516 -63.42383,-9.69727 0.94019,-0.0616 1.87127,-0.12702 2.81445,-0.1875 37.24577,-2.38167 77.69847,-0.87252 115.64258,0.4375 12.97569,4.33512 30.07254,4.05672 46.44141,1.25 3.25961,0.0378 6.47466,0.0586 9.64062,0.0586 14.12854,0 26.69578,-0.70877 38.24805,-1.53711 V 667.2734 c -2.36628,0.11077 -5.15527,-0.0226 -7.55274,0.0703 0.55329,-0.29858 1.10698,-0.59691 1.63086,-0.89844 0.33434,-0.19241 2.77804,-0.45387 5.92188,-0.76172 v -28.42773 c -9.99369,-1.38287 -22.59387,-2.03216 -36.83399,-2.09375 12.5155,-1.15702 24.90496,-2.2262 36.83399,-2.9668 v -67.4707 c -24.42132,3.03044 -50.68813,5.86199 -59.46094,7.54492 -33.48408,6.42338 -66.44839,-6.16931 -100.00391,3.48633 -17.26166,4.96705 -52.51749,-3.48704 -67.68164,-5.23242 -29.36167,-3.37958 -62.42014,3.67272 -92.93359,1.16406 -37.24486,-3.06205 -44.64313,-7.43983 -65.0957,-7.24414 z M 777.05469,667.9082 c 13.50361,0.0162 25.90471,0.8833 35.68945,2.89453 -27.78111,-0.27401 -54.67527,-0.86914 -62.25976,-0.86914 -5.30918,0 -10.54777,0.0668 -15.73438,0.18164 14.19492,-1.3891 28.80108,-2.22319 42.30469,-2.20703 z m -22.79492,26.63672 c 5.35564,-0.0536 10.32335,0.37398 14.40625,1.54883 1.15785,0.33298 2.33975,0.65202 3.53125,0.96289 -17.9212,0.35868 -36.22716,1.08987 -53.63086,1.96094 10.25052,-1.91278 23.91095,-4.35483 35.69336,-4.47266 z"
           transform="scale(0.26458333)"
           id="path920" />
        <path
           inkscape:connector-curvature="0"
           style="fill:#f1d4b0;fill-opacity:0.97561275;stroke:none;stroke-width:0.75861865px;stroke-linecap:butt;stroke-linejoin:miter;stroke-opacity:1"
           d="m 417.14258,361.94727 v 11.32617 c 14.72906,-2.51643 83.91049,-2.32402 108.3418,-11.32617 z m 150.24023,0 c 4.96805,0.91488 9.09293,1.76196 10.91407,2.11132 22.18533,4.2559 50.9911,2.32422 76.77148,2.32422 33.11973,0 63.21376,-1.9656 92.65039,-4.43554 H 591.44727 c -4.90933,0.10866 -10.33829,0.0933 -15.94336,0 z m 287.63086,3.09961 c -10.05493,-0.14192 -20.52076,2.13942 -26.19726,5.40624 -1.55513,0.89496 -3.02429,1.72329 -4.52344,2.57618 0.51054,-0.27704 1.00852,-0.55371 1.49219,-0.83203 8.23404,-4.73874 38.49962,3.00306 49.49804,-1.74415 -4.87719,-3.71977 -12.44902,-5.29587 -20.26953,-5.40624 z m -30.7207,7.98242 c -31.23062,16.94026 -111.94807,30.96637 -145.99024,11.375 -3.8324,-2.20551 -16.51064,-1.94332 -20.20312,-4.06836 -1.01745,-0.58553 -23.29242,-0.54769 -24.24414,0 -18.98071,10.92344 -82.43146,-4.30066 -101.01563,6.39453 -8.2063,4.72278 -23.2219,6.48814 -32.0957,10.96484 19.05963,2.12599 39.56533,5.08355 47.24805,0.66211 4.91803,-2.8303 17.63099,0.1587 24.24414,-1.74414 28.98652,-8.34092 76.25325,-6.69418 101.01562,7.55664 2.20793,1.27064 19.67356,-0.58008 24.24414,-0.58008 65.84153,0 87.16815,-8.01517 126.79688,-30.56054 z m -323.54883,24.66601 c -15.1895,-1.69432 -29.4613,-2.86154 -35.58398,0.66211 -0.0575,0.034 -0.13598,0.066 -0.20704,0.0996 19.31694,0.008 34.47756,-0.0561 34.55274,-0.0996 0.39609,-0.2279 0.8124,-0.44728 1.23828,-0.66211 z m -35.79102,0.76172 c -15.12168,-0.007 -32.56181,-0.0732 -47.81054,-0.2207 v 5.93945 c 22.73952,-1.80254 44.13184,-3.97982 47.81054,-5.71875 z M 841.73047,390 c -9.83356,-0.0302 -20.98548,11.83922 -24.02735,13.58984 -10.68309,6.14816 -37.25958,4.00191 -48.48632,10.46289 -10.24551,5.89633 -15.1708,12.79102 -34.34571,12.79102 -11.76669,0 -57.67859,-2.38273 -59.59961,-3.48828 -4.53891,-2.61215 -60.57392,-19.7844 -75.75976,-11.04492 -6.30236,3.62698 -13.5526,6.22335 -22.22461,8.71875 -10.79675,3.10677 -36.66797,-2.73197 -45.45703,2.32617 -9.55737,5.50027 -47.00348,-3.624 -59.59766,0 -14.19258,4.08392 -33.7687,4.57803 -55.08984,3.9082 v 3.51367 c 43.12736,-0.68325 86.6944,-1.60742 126.81054,-1.60742 3.89874,0 25.76466,6.68128 32.32422,2.90625 14.7134,-8.46758 92.76141,-5.91364 104.04493,0.58008 2.25841,1.29974 144.75654,-12.29499 162.63476,-17.43945 11.25902,-3.23978 19.7435,-7.07838 26.26367,-12.79102 -2.35491,-1.01646 -20.4036,-9.99803 -22.22265,-11.04492 -1.67073,-0.96151 -3.44655,-1.37526 -5.26758,-1.38086 z m -100.79883,40.33203 c -17.06589,0 -31.96901,2.70385 -41.41602,8.14063 -8.68251,4.9968 -90.21796,12.46132 -107.07617,15.69531 -33.48408,6.42338 -66.44839,-6.16735 -100.0039,3.48828 -17.26167,4.96706 -52.5175,-3.48704 -67.68164,-5.23242 -2.51098,-0.28902 -5.05018,-0.49754 -7.61133,-0.64649 V 482.75 c 25.10049,2.32943 57.22112,4.52322 61.15039,3.39258 3.39254,-0.97622 14.98704,-7.0722 20.20312,-4.07031 10.57055,6.08337 36.09523,-2.98517 50.50782,1.16211 0.38196,0.10998 0.75788,0.20868 1.13867,0.3164 -1.78069,0.78089 -3.51469,1.63361 -5.17969,2.5918 -7.47556,4.30223 -15.62417,11.47074 -24.24414,13.95117 -5.18857,1.49299 -12.15149,-5.79547 -17.17187,-2.90625 -0.37796,0.21732 -1.99736,4.08206 -1.00977,4.65039 8.42132,4.84649 15.28728,8.35106 21.27148,10.83984 -22.77222,1.39601 -41.30159,1.46725 -46.52539,-1.53906 -12.92739,-7.43974 -35.27144,-8.36211 -60.14062,-7.13281 v 8.52344 c 30.0808,1.99402 58.60601,8.01866 89.43359,10.23632 1.85004,0.13304 3.73485,0.24196 5.65039,0.32813 -37.43365,3.88576 -72.71971,9.10439 -95.08398,14.00195 v 72.00391 c 24.45041,-3.10791 43.96782,-6.10113 45.99804,-7.26953 6.17265,-3.55238 97.5115,2.46056 114.14649,-2.32617 39.92406,-11.48822 42.47957,23.83593 67.67969,23.83593 v -0.002 c 6.40686,0 37.3877,-2.913 41.41797,-5.23242 8.97101,-5.16284 66.44059,-0.58008 80.81054,-0.58008 4.15639,0 19.62433,0.91444 22.22461,-0.58203 7.76413,-4.46831 56.94714,-14.69437 65.66016,-15.69727 5.14673,-3.94926 7.09089,-6.69648 9.08984,-11.62695 -18.57369,-1.6854 -36.68121,-1.32294 -54.5332,-0.008 7.9333,-4.59379 -17.99052,-11.37906 -19.20703,-12.7793 -1.70132,-1.95825 -2.47246,-4.17314 -2.9336,-6.46289 26.59004,-5.78166 61.16931,-16.06047 64.55274,-20.2793 -7.99631,-3.45142 -18.49487,4.47185 -25.25391,0.58204 -9.7005,-5.58271 -31.02422,-1.081 -43.43554,-4.65235 -18.73667,-5.39149 -64.47567,-9.71502 -97.81836,-5.67773 0.0302,-0.74714 -0.62955,-1.56237 -2.1875,-2.45899 -5.96837,-3.43483 -9.1662,-13.394 -19.19336,-16.27929 -10.76387,-3.09733 -28.16364,-4.45245 -49.09375,-4.54297 37.8672,-3.50071 74.66808,-6.2463 100.61132,-1.26953 11.39774,2.18649 59.93103,13.56607 66.66993,11.62695 15.44107,-4.44325 41.4155,-13.47117 59.59961,-8.13867 5.83271,-8.39188 -31.97001,-6.19181 -40.40625,-11.04688 -6.34398,-3.65098 -9.37964,-10.62989 -16.16211,-14.5332 -1.73976,-1.00127 -53.67333,2.7585 -95.82032,5.6543 4.49277,-1.29343 14.22571,-3.32813 16.01758,-3.32813 5.8306,0 31.80411,-3.77064 35.35547,-5.81445 7.99423,-4.60071 51.40448,-0.58203 61.61914,-0.58203 6.98472,0 14.23354,-13.79224 9.0918,-6.39453 -10.44189,-4.28565 -114.08962,-3.59592 -158.77539,-3.13282 8.07409,-3.25379 16.1835,-7.23697 24.42578,-11.98047 60.66459,-34.91259 30.68221,-4.83293 63.63867,4.65039 7.18322,2.06695 14.98463,-2.45554 19.19336,-4.07031 27.58942,-10.58517 64.67732,-9.30867 92.93359,-17.43945 6.28967,-1.80987 12.04125,-2.68109 19.19336,-4.65234 -0.77317,-1.11243 -2.12866,-3.54894 -3.03125,-4.06836 -3.02445,-1.73965 -15.84131,-1.74415 -21.21289,-1.74414 -45.61349,0 -69.45815,-10.46485 -107.07617,-10.46485 z m -82.04492,116.5625 c -0.98831,0.46091 -1.92658,0.94276 -2.80664,1.44922 -2.21586,1.27521 -7.5802,0.73946 -11.73242,0.90039 0.55328,-0.29858 1.10698,-0.59886 1.63086,-0.90039 0.55494,-0.31937 6.12841,-0.75522 12.9082,-1.44922 z m -159.07422,2.91211 c 13.50361,0.0162 25.90471,0.88329 35.68945,2.89453 -27.78111,-0.27401 -54.67527,-0.86914 -62.25976,-0.86914 -5.30918,0 -10.54777,0.0667 -15.73438,0.18164 14.19493,-1.38911 28.80108,-2.22319 42.30469,-2.20703 z m 196.57422,8.35547 c 13.84736,0.0178 26.88315,1.54559 40.56055,6.38867 -20.14568,4.51404 -42.65028,8.79102 -56.625,8.79102 -5.29331,0 -27.36632,3.43151 -40.83985,3.55468 -4.49117,0.0412 -8.02619,-0.28491 -9.66601,-1.22851 -7.49288,-4.31218 -28.0393,-15.18697 -48.48829,-9.30274 -13.27876,3.82099 -63.63537,8.43136 -78.79101,4.07032 -16.85212,-4.84925 -39.60517,-8.35516 -63.42383,-9.69727 0.9402,-0.0616 1.87127,-0.12507 2.81445,-0.18555 37.24577,-2.38166 77.69847,-0.87447 115.64258,0.43555 12.97569,4.33512 30.07254,4.05672 46.44141,1.25 3.25961,0.0378 6.47466,0.0586 9.64062,0.0586 34.32144,0 59.65544,-4.16441 82.73438,-4.13477 z m -219.36914,18.2832 c 5.35564,-0.0536 10.32335,0.37202 14.40625,1.54688 1.15786,0.33297 2.33975,0.65202 3.53125,0.96289 -17.9212,0.35868 -36.22716,1.09182 -53.63086,1.96289 10.25053,-1.91278 23.91095,-4.35483 35.69336,-4.47266 z m 142.00195,13.54102 c 24.78796,1.27479 47.81683,3.31011 65.34375,8.35351 3.60798,1.0382 8.73637,1.73472 14.86328,2.14454 -3.59951,0.11792 -7.2068,0.18164 -10.82226,0.18164 -26.2342,0 -47.39918,-5.36518 -69.38477,-10.67969 z"
           transform="scale(0.26458333)"
           id="path922" />
      </g>
      <rect
         y="17.836357"
         x="17.258377"
         height="135.46666"
         width="135.46666"
         id="rect946"
         style="fill:#000000;fill-opacity:0.33333333;stroke:none;stroke-width:0.26734936;stroke-opacity:1" />
    </g>
    <rect
       style="fill:none;fill-opacity:0.88383837;stroke:#000000;stroke-width:0.40273032;stroke-opacity:1"
       id="rect4661"
       width="135.06393"
       height="135.06393"
       x="214.41925"
       y="37.853931"
       inkscape:export-xdpi="96"
       inkscape:export-ydpi="96" />
    <rect
       style="fill:#d8d8d8;fill-opacity:1;stroke:none;stroke-width:0.26458332;stroke-opacity:1"
       id="rect4663"
       width="19.377041"
       height="19.377041"
       x="218.62646"
       y="41.891235" />
    <rect
       y="61.268276"
       x="218.62646"
       height="19.377041"
       width="126.15121"
       id="rect4665"
       style="fill:url(#linearGradient4673);fill-opacity:1;stroke:none;stroke-width:0.67509431;stroke-opacity:1" />
    <rect
       y="41.891235"
       x="238.00351"
       height="19.377041"
       width="19.377041"
       id="rect4675"
       style="fill:#d6a457;fill-opacity:1;stroke:none;stroke-width:0.26458332;stroke-opacity:1" />
    <rect
       style="fill:#9f8b6d;fill-opacity:1;stroke:none;stroke-width:0.26458332;stroke-opacity:1"
       id="rect4677"
       width="19.377041"
       height="19.377041"
       x="257.38055"
       y="41.891235" />
    <rect
       y="41.891235"
       x="276.7576"
       height="19.377041"
       width="19.377041"
       id="rect4679"
       style="fill:#d27777;fill-opacity:1;stroke:none;stroke-width:0.26458332;stroke-opacity:1" />
    <rect
       style="fill:#d27777;fill-opacity:1;stroke:none;stroke-width:0.26458332;stroke-opacity:1"
       id="rect4681"
       width="19.377041"
       height="19.377041"
       x="276.7576"
       y="41.891235" />
    <rect
       y="41.891235"
       x="296.13464"
       height="19.377041"
       width="19.377041"
       id="rect4683"
       style="fill:#9cc287;fill-opacity:1;stroke:none;stroke-width:0.26458332;stroke-opacity:1" />
    <path
       style="fill:url(#linearGradient4792);fill-opacity:1;stroke:none;stroke-width:0.26458332;stroke-opacity:1"
       d="m 348.27331,80.645205 v -19.24327 h -0.26717 v 19.24327 z m -2.27169,0 v -19.24327 h -0.26769 v 19.24327 z m -3.01997,0 v -19.24327 h -0.26717 v 19.24327 z m -2.2717,0 v -19.24327 h -0.26768 v 19.24327 z m -3.01997,0 v -19.24327 h -0.26717 v 19.24327 z m -2.2717,0 v -19.24327 h -0.26768 v 19.24327 z m -3.01997,0 v -19.24327 h -0.26717 v 19.24327 z m -2.27169,0 v -19.24327 h -0.26769 v 19.24327 z m -3.01997,0 v -19.24327 h -0.26717 v 19.24327 z m -2.2717,0 v -19.24327 h -0.26768 v 19.24327 z m -3.01997,0 v -19.24327 h -0.26717 v 19.24327 z m -2.2717,0 v -19.24327 h -0.26768 v 19.24327 z m -3.01997,0 v -19.24327 h -0.26717 v 19.24327 z m -2.27169,0 v -19.24327 h -0.26769 v 19.24327 z m -3.01997,0 v -19.24327 h -0.26717 v 19.24327 z m -2.2717,0 v -19.24327 h -0.26768 v 19.24327 z m -3.01997,0 v -19.24327 h -0.26717 v 19.24327 z m -2.2717,0 v -19.24327 h -0.26768 v 19.24327 z m -3.01997,0 v -19.24327 h -0.26718 v 19.24327 z m -2.27169,0 v -19.24327 h -0.26767 v 19.24327 z m -3.01998,0 v -19.24327 h -0.26717 v 19.24327 z m -2.27168,0 v -19.24327 h -0.26768 v 19.24327 z m -3.01998,0 v -19.24327 h -0.26718 v 19.24327 z m -2.27169,0 v -19.24327 h -0.26768 v 19.24327 z m -3.01998,0 v -19.24327 h -0.26718 v 19.24327 z m -2.27169,0 v -19.24327 h -0.26767 v 19.24327 z m -3.01998,0 v -19.24327 h -0.26717 v 19.24327 z m -2.27168,0 v -19.24327 h -0.26768 v 19.24327 z m -3.01998,0 v -19.24327 h -0.26718 v 19.24327 z m -2.27169,0 v -19.24327 h -0.26768 v 19.24327 z m -3.01998,0 v -19.24327 h -0.26718 v 19.24327 z m -2.27168,0 v -19.24327 h -0.26768 v 19.24327 z m -3.01999,0 v -19.24327 h -0.26717 v 19.24327 z m -2.27168,0 v -19.24327 h -0.26768 v 19.24327 z m -3.01998,0 v -19.24327 h -0.26718 v 19.24327 z m -2.27169,0 v -19.24327 h -0.26717 v 19.24327 z m -3.01998,0 v -19.24327 h -0.26717 v 19.24327 z m -2.27168,0 v -19.24327 h -0.26718 v 19.24327 z m -3.01999,0 v -19.24327 h -0.26717 v 19.24327 z m -2.27168,0 v -19.24327 h -0.26718 v 19.24327 z m -3.01998,0 v -19.24327 h -0.26718 v 19.24327 z m -2.27169,0 v -19.24327 h -0.26717 v 19.24327 z m -3.01998,0 v -19.24327 h -0.26717 v 19.24327 z m -2.27168,0 v -19.24327 h -0.26718 v 19.24327 z m -3.01999,0 v -19.24327 h -0.26717 v 19.24327 z m -2.27168,0 v -19.24327 h -0.26718 v 19.24327 z m -3.01998,0 v -19.24327 h -0.26718 v 19.24327 z m -2.27169,0 v -19.24327 h -0.26717 v 19.24327 z m -3.01998,0 v -19.24327 h -0.26717 v 19.24327 z m -2.27168,0 v -19.24327 h -0.26718 v 19.24327 z"
       id="rect4685"
       inkscape:connector-curvature="0" />
  </g>
</svg>
